<svg width="163" height="20" version="1.1" id="Ebene_1" xmlns="http://www.w3.org/2000/svg" xmlns:xlink="http://www.w3.org/1999/xlink" x="0px" y="0px"
	 viewBox="0 0 162.1 20" style="enable-background:new 0 0 162.1 20;" xml:space="preserve">
<style type="text/css">
	.st0{fill:#FFF3F4;stroke:#AD2831;}
	.st1{fill:#0E1E25;stroke:#0E1E25;}
	.st2{fill:#AD2831;}
	.st3{fill:#FFFFFF;}
	.st4{fill:#E962BE;}
</style>
<g>
	<path class="st0" d="M111,0.5h46.1c2.5,0,4.5,1.7,4.5,3.8v11.4c0,2.1-2,3.8-4.5,3.8H111C111,19.5,111,0.5,111,0.5z"/>
	<path class="st1" d="M0.5,5c0-2.5,2-4.5,4.5-4.5h106v19H5c-2.5,0-4.5-2-4.5-4.5V5z"/>
	<g>
		<path class="st2" d="M117.4,4.9h6.1v1.5h-4.3V9h3.6v1.5h-3.6v3h4.4V15h-6.2V4.9z"/>
		<path class="st2" d="M125.5,7.4h1.5l0.1,1.3h0c0.5-1,1.3-1.5,2.1-1.5c0.4,0,0.6,0,0.9,0.2l-0.3,1.5c-0.3-0.1-0.5-0.1-0.8-0.1
			c-0.6,0-1.3,0.4-1.8,1.6V15h-1.8V7.4z"/>
		<path class="st2" d="M131.3,7.4h1.5l0.1,1.3h0c0.5-1,1.3-1.5,2.1-1.5c0.4,0,0.6,0,0.9,0.2l-0.3,1.5c-0.3-0.1-0.5-0.1-0.8-0.1
			c-0.6,0-1.3,0.4-1.8,1.6V15h-1.8V7.4z"/>
		<path class="st2" d="M136.4,11.2c0-2.5,1.7-4,3.6-4s3.6,1.5,3.6,4c0,2.5-1.7,4-3.6,4S136.4,13.7,136.4,11.2z M141.7,11.2
			c0-1.5-0.7-2.5-1.8-2.5s-1.8,1-1.8,2.5c0,1.5,0.7,2.5,1.8,2.5S141.7,12.7,141.7,11.2z"/>
		<path class="st2" d="M145.3,7.4h1.5l0.1,1.3h0c0.5-1,1.3-1.5,2.1-1.5c0.4,0,0.6,0,0.9,0.2l-0.3,1.5c-0.3-0.1-0.5-0.1-0.8-0.1
			c-0.6,0-1.3,0.4-1.8,1.6V15h-1.8V7.4z"/>
	</g>
	<g>
		<path class="st3" d="M22.7,11.3c0,1.4-0.5,1.9-1.4,1.9c-0.6,0-1.1-0.3-1.5-1l-1.2,0.9c0.6,1.1,1.6,1.7,2.9,1.7
			c2.1,0,2.9-1.5,2.9-3.3V4.7h-1.7C22.7,4.7,22.7,11.3,22.7,11.3z"/>
		<path class="st3" d="M29.7,7c-1.2,0-2.2,0.5-3,1l0.6,1.2c0.6-0.4,1.3-0.7,2.1-0.7c1,0,1.3,0.7,1.3,1.5c-3,0.3-4.3,1.1-4.3,2.7
			c0,1.3,0.9,2.2,2.2,2.2c0.9,0,1.6-0.4,2.3-1l0,0l0.1,0.8h1.4v-4.4C32.5,8.1,31.5,7,29.7,7z M30.7,12.6c-0.5,0.5-1,0.8-1.6,0.8
			S28,13.1,28,12.5c0-0.7,0.7-1.3,2.7-1.5V12.6z"/>
		<path class="st3" d="M42.8,7c-0.9,0-1.7,0.6-2.4,1.3c-0.3-0.8-1-1.3-2-1.3c-0.9,0-1.6,0.5-2.3,1.2l0,0l-0.1-1h-1.4v7.4h1.7V9.4
			c0.6-0.6,1.1-0.9,1.5-0.9c0.8,0,1.1,0.5,1.1,1.7v4.4h1.7V9.4c0.6-0.6,1.1-0.9,1.5-0.9c0.8,0,1.1,0.5,1.1,1.7v4.4h1.7V9.9
			C45.1,8.1,44.4,7,42.8,7z"/>
		<path class="st3" d="M51.8,9.2l-1.3-0.6c-0.8-0.3-1.6-0.6-1.6-1.4c0-0.7,0.6-1.2,1.5-1.2c0.8,0,1.5,0.3,2.1,0.8l0.9-1.1
			c-0.8-0.8-1.9-1.3-3-1.3c-1.9,0-3.3,1.2-3.3,2.8c0,1.4,1,2.2,2,2.6l1.3,0.6c0.9,0.4,1.5,0.6,1.5,1.4c0,0.8-0.6,1.3-1.7,1.3
			c-0.9,0-1.9-0.5-2.6-1.1l-1,1.2c0.9,0.9,2.2,1.4,3.5,1.4c2.2,0,3.5-1.3,3.5-2.9C53.8,10.4,52.9,9.6,51.8,9.2z"/>
		<path class="st3" d="M58.1,13.4c-0.7,0-1-0.4-1-1.3V8.5H59V7.2h-2v-2h-1.4l-0.2,2l-1.1,0.1v1.3h1.1v3.5c0,1.6,0.6,2.7,2.3,2.7
			c0.6,0,1.1-0.1,1.5-0.3l-0.3-1.3C58.6,13.3,58.3,13.4,58.1,13.4z"/>
		<path class="st3" d="M63.1,7c-1.2,0-2.2,0.5-3,1l0.6,1.2c0.6-0.4,1.3-0.7,2.1-0.7c1,0,1.3,0.7,1.3,1.5c-3,0.3-4.3,1.1-4.3,2.7
			c0,1.3,0.9,2.2,2.2,2.2c0.9,0,1.6-0.4,2.3-1l0,0l0.1,0.8h1.4v-4.4C65.8,8.1,64.9,7,63.1,7z M64.1,12.6c-0.5,0.5-1,0.8-1.6,0.8
			s-1.1-0.3-1.1-0.9c0-0.7,0.7-1.3,2.7-1.5V12.6z"/>
		<path class="st3" d="M71.2,13.3c-1.1,0-2-1-2-2.5s0.8-2.5,2-2.5c0.5,0,0.8,0.2,1.2,0.5l0.8-1.1C72.7,7.3,72.1,7,71.1,7
			c-2,0-3.7,1.4-3.7,3.9c0,2.4,1.5,3.9,3.6,3.9c0.8,0,1.7-0.3,2.4-0.9l-0.7-1.1C72.3,13,71.7,13.3,71.2,13.3z"/>
		<polygon class="st3" points="81.2,7.2 79.3,7.2 76.6,10.6 76.5,10.6 76.5,3.9 74.8,3.9 74.8,14.6 76.5,14.6 76.5,12.7 77.7,11.3 
			79.6,14.6 81.5,14.6 78.7,10.2 		"/>
		<path class="st3" d="M88.1,9.3L88.1,9.3C89,9,89.5,8.1,89.5,7.1c0-1.8-1.5-2.4-3.5-2.4h-3.1v9.8h3.4c2.2,0,3.8-0.9,3.8-2.9
			C90,10.3,89.2,9.6,88.1,9.3z M84.6,6.1h1.3c1.3,0,1.9,0.4,1.9,1.3s-0.6,1.4-2,1.4h-1.2C84.6,8.8,84.6,6.1,84.6,6.1z M86.1,13.2
			h-1.5v-3.1h1.5c1.5,0,2.3,0.5,2.3,1.5C88.3,12.7,87.5,13.2,86.1,13.2z"/>
		<path class="st3" d="M94.7,7c-1.8,0-3.5,1.4-3.5,3.9c0,2.4,1.7,3.9,3.5,3.9s3.5-1.4,3.5-3.9S96.5,7,94.7,7z M94.7,13.3
			c-1.1,0-1.7-1-1.7-2.5s0.6-2.5,1.7-2.5s1.7,1,1.7,2.5C96.4,12.3,95.8,13.3,94.7,13.3z"/>
		<path class="st3" d="M103.2,10.9l2.2-3.7h-1.8l-0.7,1.4c-0.2,0.4-0.4,0.8-0.6,1.2h-0.1c-0.2-0.4-0.5-0.8-0.7-1.2l-0.8-1.4h-1.9
			l2.2,3.5l-2.3,3.9h1.8l0.8-1.5c0.2-0.4,0.4-0.9,0.7-1.3h0.1c0.3,0.4,0.5,0.9,0.7,1.3l0.9,1.5h1.9L103.2,10.9z"/>
	</g>
	<path class="st4" d="M10.9,5.3l4.2,4.2c0.4,0.4,0.4,1,0,1.4l-4.2,4.2c-0.4,0.4-1,0.4-1.4,0l-4.2-4.2c-0.4-0.4-0.4-1,0-1.4l4.2-4.2
		C9.9,4.9,10.6,4.9,10.9,5.3L10.9,5.3z"/>
</g>
</svg>
