<?xml version="1.0" encoding="utf-8"?>
<!-- Generator: Adobe Illustrator 25.2.0, SVG Export Plug-In . SVG Version: 6.00 Build 0)  -->
<svg version="1.1" id="Ebene_1" xmlns="http://www.w3.org/2000/svg" xmlns:xlink="http://www.w3.org/1999/xlink" x="0px" y="0px"
	 viewBox="0 0 500 500" style="enable-background:new 0 0 500 500;" xml:space="preserve">
<style type="text/css">
	.st0{fill:#FEFEFE;}
	.st1{fill:#D4A674;}
	.st2{fill:#040403;}
	.st3{fill:#B3D6F2;}
	.st4{fill:#E7BD83;}
	.st5{fill:#C19262;}
	.st6{fill:#EBCB9A;}
	.st7{fill:#EA5EBE;}
	.st8{fill:#C19261;}
	.st9{fill:#FB3D49;}
	.st10{fill:#FDFDFD;}
</style>
<g>
	<circle class="st0" cx="250" cy="250" r="353.6"/>
	<path class="st1" d="M79.9,390.9c-1.7-0.8-2.6-3-4.8-3c-1.2-7.2-0.6-14.5,0-21.7c0.1-1.1,0.5-2.3,0.5-3.4
		c-0.5-14,1.5-27.9,1.1-41.9c-0.2-6.7-1.1-13.3-1.2-19.9c-0.3-12,1.2-23.9,1.2-35.9c0-5.3,1.2-6,6.5-4.6
		c18.4,4.7,36.1,11.8,54.4,16.9c9.8,2.7,19.8,4.5,29.4,8c1.7,0.6,3.6,0.4,5.4,0c0.9-0.1,1.7-0.1,2.5,0.2c1.1,0.4,2.1,0.8,3.1-0.5
		c2.6-3.4,6.3-6.1,8.5-9.8c8.7-14.6,19.9-27.6,27.8-42.7c1.5-2.9,3.6-5.6,5.8-8.1c1.8-2.1,3.4-1.9,4.1,1.1c0.3,1.3,0.4,2.7,0.2,4
		c-2.2,16.9-0.1,33.9-0.1,50.8c0,14.2,0.6,28.3,1.3,42.4c0.5,9.8,2.5,19.5,1.7,29.4c-1,12.8-0.8,25.6-0.9,38.4
		c-0.2,12.5,1.3,24.9,2.5,37.3c0.5,5.2-0.3,6-5.3,4.9c-19.5-4.5-38.4-11-57.3-17.6c-21.2-7.4-42.9-13.5-64.8-18.6
		C94.3,394.8,87.3,392.1,79.9,390.9z"/>
	<path class="st2" d="M172.8,286.1c-1.5,2.2-3.6,1.2-5.4,0.7c-9.7-2.5-19.3-5-28.9-7.7c-7.2-2-14.4-4.1-21.4-6.5
		c-12.2-4.3-24.7-7.8-37-11.8c-0.6-0.2-1.3-0.3-1.8-0.5c-0.6,0.6-0.7,1.2-0.7,1.9c0.5,14.5-1.4,28.9-0.4,43.4
		c0.4,6.3,0.8,12.6,0.8,18.9c0,16-1.1,31.9-2.1,47.8c-0.3,5.1,0.1,10.3-0.9,15.4c-2.4,0-2-1.8-2-3.1c0-4.9,0-9.8,0-14.8
		c0.6-5.4,0.7-10.8-0.2-16.3c-0.7-4.9-0.8-10-0.1-14.9c2-13.3-0.5-26.6-0.8-39.8c-0.1-5.3-0.8-10.6,0.1-15.9
		c1.2-6.9-0.7-13.6-0.9-20.4c-0.1-2.9-2.7-3.5-5-4.1c-12.2-3.4-24.2-7.2-36.5-10.4c-3.4-0.9-6.7-1.9-9.8-3.7
		c-3.2-1.9-3.7-4.5-1.8-7.6c1.7-2.7,4.1-4.8,6.4-7c12.8-11.9,23.3-26,35.6-38.4c2.4-2.4,4.7-4.7,7.5-6.5c1.4-1.8,3.7-3.4,4.1-5.4
		c0.4-1.9-2.2-3.4-3.4-5.2c-8.1-11.6-15.2-23.8-21.4-36.5c-2.8-5.7-5.8-11.3-9.8-16.1c-4.2-5.2-7.1-11.2-10.6-16.8
		c-1.2-2-0.5-2.6,1.1-3.3c1.4-0.6,2.9-0.7,4.4-0.9c14.6-1.2,29.1-2.8,43.7-3.6c14.6-0.7,29-3.6,43.6-4.3c6-0.3,12,0.1,18,0
		c15.1-0.2,30.1-2.2,45.1-4.3c9.3-1.3,18.5-1.2,27.8-1.6c0.2,0,0.4-0.1,0.5,0c4.6,4.1,10.2,0.9,15.2,2.2c5.1,1.3,10.3,0.5,15.4,0.3
		c6.5-0.2,13-0.3,19.3,1.4c4.4,1.2,8.9,0.8,13.4,1.6c5.7,1,11.6,1.2,16.9,4.1c1.4,0.8,2.1,0.1,2.8-1.1c1.8-3.2,3.9-6.2,6.1-9.1
		c1.5-2.1,3.1-2.5,5.5-1.8c8.5,2.3,17.1,4,25.9,5.3c7.7,1.1,15.5,2,23.3,2c11.7,0,23.2,1.7,34.8,2.8c16.2,1.4,32.2,4.5,48.2,7.5
		c6.5,1.2,12.9,3.2,19.4,4.5c2.8,0.6,5.5,2.5,8.9-0.4c-0.4,4-2.5,5.5-3.8,7.5c-9.3,14.2-21,26.6-30.6,40.6
		c-5.2,7.5-10.5,15-15.7,22.5c-1.3,1.9-2.5,3.9-3.9,6.2c6.8,4.9,13.5,9.8,20.2,14.7c11.7,8.5,23.1,17.4,32.7,28.3
		c4.3,4.8,9.9,7.8,15.1,11.2c1.4,0.9,2.9,1.6,4.2,2.7c1.2,1,3.4,1.4,2.8,3.6c-0.6,2.1-1.5,3.7-4.3,4c-2.2,0.2-4.6,0.4-6.7,1.6
		c-5.5,3.2-11.7,3.6-17.7,4.5c-12.8,1.9-25.8,3-38.5,6c-8.5,2-9,2.8-9.2,11.4c-0.6,21.8,1,43.6,1,65.4c0,2.6,0.4,5.4-1.3,7.7
		c-1.2,5.4-0.8,10.9-1,16.4c-0.2,9.1,0.1,18.3,0.2,27.4c0,0.7,0.2,1.3,0.3,2c0.7,4.5,0.4,5.2-3.8,5.3c-3.9,0.1-7.6,0.9-11.3,1.7
		c-14.3,3.5-29.2,4.6-43.1,10.1c-4,1.6-8.1,3.1-11.8,5.2c-7.1,3.8-14.5,6.6-22.4,8.3c-8.3,1.8-16.2,5.1-24.6,6.3
		c-10.7,1.4-21.2,3.9-31.9,5.4c-10,1.4-20.3,0.7-30,4.3c-1.9,0.7-2.8-0.5-4.2-0.7c-14.6-1.9-28.4-6.6-42.1-11.6
		c-20.1-7.3-40.3-14.3-60.9-20.3c-12-3.5-24.2-5.7-36.1-9.6c-2.7-0.9-5.4-1.7-7.7-3.3c0.1-2.1,1.4-1.2,2.4-1c7.7,2,15.4,4,23.2,5.9
		c18.3,4.4,36.3,9.4,54.1,15.3c13.9,4.6,27.7,9.4,41.5,14.1c6.9,2.3,14.1,3.7,21.2,5.6c1.8,0.5,3.4,1.2,5.5,1.8
		c-0.3-4.5-0.5-8.8-1-13.1c-2.4-19.1-2.6-38.2-1.5-57.3c0.8-13.9-0.2-27.5-1-41.3c-0.8-14.4-1.1-28.9-1.5-43.4
		c-0.3-13.1-1-26.3-0.4-39.4c0.1-1.7,0.3-3.3,0.4-5c0.3-3.2,0.5-6.5,0.1-10.7c-3.4,5-6.5,9.1-9,13.5c-6.1,10.7-12.9,20.9-20.4,30.7
		c-1.6,2.1-2.9,4.5-4.1,6.8c-2.8,5.4-7.8,9.1-11.2,14c-0.7,1-1.7,0.9-2.7,0.8c-2-0.2-0.5-1.4-0.5-2.2c2.8-5.7,7-10.5,10.5-15.7
		c11-16.5,22.3-32.7,32.8-49.5c2.9-4.7,2.5-5.6-2.9-6.1c-25.6-2.5-50.2-10.4-75.2-15.6c-14.2-2.9-28.2-6.5-42.6-8.6
		c-6.3-0.9-12.3-2.9-18.2-5.3c-2.9-1.2-4.8-0.7-7,1.6c-15.9,16.4-30.1,34.3-46.8,49.9c-2,1.9-1.6,3.1,0.7,4
		c3.9,1.6,7.9,2.6,11.9,3.6c22.6,5.6,45.4,10.7,67.2,19.1c17.1,6.6,34.7,11.7,52.3,16.6C163,281.4,168.3,282.7,172.8,286.1z"/>
	<path class="st3" d="M67.8,184.9c-5.6,6.8-11.5,13.3-17.7,19.5c-2,2-3.8,4.2-5.6,6.3c-7,8-13.9,16.1-22,23.1
		c-6.6,5.7-6,8.5,2.3,11.2c8.8,2.8,17.8,5.2,26.7,7.7c6.2,1.8,12.4,3.7,18.6,5.3c2.2,0.6,2.7,1.8,2.8,3.9c0.3,8.6,0.5,17.2,0.4,25.9
		c-0.2,10.8,0.1,21.6,1.3,32.4c0.5,4.8,0.3,9.7-0.1,14.5c-0.7,9.3-1,18.6-0.8,27.9c0.1,2.4,0.6,5-0.8,7.3c0-4-0.1-8-0.1-12
		c0-1.9-0.3-2.8-2.6-3.2c-8.1-1.5-15.9-4.2-23-8.4c-2.9-1.7-6-2.7-8.8-4.5c-8.9-5.6-16-12.7-20.4-22.4c-1.9-4.3-2.3-8.9-3.1-13.4
		c-1.6-8.7-3.1-17.5-3.2-26.4c-0.2-11,1.3-21.8,1.1-32.8c0-0.3-0.1-0.7,0-1c3.5-8.4,5.1-17.4,11.8-24.6c9.1-9.7,18.6-19,27.9-28.5
		C56.9,188.6,61.8,185.8,67.8,184.9z"/>
	<path class="st3" d="M410.2,344c0-9.1,0.6-18.3-0.3-27.4c-0.9-9.5-0.9-18.9-0.9-28.4c0-7.7,0.2-15.3,0.4-22.9
		c0.1-4.9,0.2-5,4.7-6.1c8.4-2.2,16.9-3.8,25.4-4.8c10.9-1.3,21.8-2.5,32.5-5c1.3-0.3,2.6-0.3,3.9-0.4c0.8,1.8,2,3.4,3.3,4.9
		c4.6,5.5,8.9,11.5,10.9,18.2c2.1,6.9,2.9,14.5,1,22c-1.6,6.3-4.3,11.7-8.4,16.6c-1.7,2-3.9,3.3-6.2,4c-5.8,1.8-11.8,2.7-17.9,3.4
		c-3.2,0.3-6.5,0.2-9.3-1.1c-3.1-1.4-4.5-0.1-5.9,2.2c-6.2,10.1-15.4,16.7-25.4,22.3C415.7,342.8,413.1,344,410.2,344z"/>
	<path class="st4" d="M172.8,286.1c-0.5-0.1-1-0.1-1.5-0.2c-10.8-4.5-22.4-6.2-33.2-10.4c-4.5-1.7-9.3-2.4-13.8-4.1
		c-14.5-5.3-29.1-10.4-43.8-15.1c-8.2-2.6-16.7-4.3-25.1-6.4c-8.8-2.3-17.8-4.2-26.5-6.9c-2.7-0.9-5.3-1.7-7.8-3.7
		c2.4-2.5,4.5-5,7-7.1c8.2-6.9,14.9-15.2,22-23.1c6.2-6.9,12.7-13.7,19-20.5c1.1-1.2,2.4-2.4,3.2-3.8c1.4-2.3,3-2.6,5.3-1.5
		c9.5,4.2,19.5,6.5,29.8,7.8c9.1,1.2,17.9,3.7,26.8,5.6c17.8,3.8,35.7,7.9,53.4,12.3c9,2.2,18.2,3.8,27.5,4.5
		c2.5,0.2,4.9,0.5,7.7,1.8c-2.4,4.1-4.4,8.3-7,12c-11.7,17.4-23.4,34.7-35.2,52.1c-1.7,2.5-3.2,5.1-5.8,6.8
		C174.2,286,173.5,286,172.8,286.1z"/>
	<path class="st5" d="M226.8,216c1.2,1.8,2.3,3.6,3.5,5.4c4.4,6.8,9.1,13.4,14.3,19.8c4.9,6,9.6,12.3,13.9,18.8
		c5.3,8,10.8,15.9,16.2,24c1.5,2.3,3,3.1,6.1,2.4c16.8-4,33.9-6,50.7-9.9c17.3-4,34.7-7.5,52.1-11c6-1.2,12.1-1.9,18.1-3.2
		c4.3-1,4.6-0.6,4.4,3.7c-0.6,12.1-1.1,24.3-1.1,36.4c0,9,1.6,17.9,0.9,26.9c-0.4,5.3-1,10.7-0.6,15.9c0.9,12.3,0.3,24.6,0.6,36.9
		c0,2.2,0.3,4.3,0.9,6.4c0.6,2.1-0.3,3.1-2.4,3.3c-11.1,1-21.8,4.2-32.8,5.8c-11.3,1.6-21.9,5.4-32.2,10.2
		c-17.3,8-35.6,12.8-54.3,16.1c-3.1,0.5-6.2,1.3-9.2,2c-11.7,2.7-23.6,3.8-35.5,5c-2.5,0.3-4.9,0.4-7.3,1.3
		c-3.4,1.3-3.7,1.1-3.8-2.5c-0.2-7.8-0.3-15.6-0.3-23.5c-0.1-23.1,0.1-46.3-0.1-69.4c0-5.6-1.2-11.2-1.6-16.8
		c-0.9-10.4-0.7-20.9-1.1-31.4c-0.5-12.1-0.8-24.2-1.1-36.4c-0.2-7.8-0.1-15.6,1-23.4c0.4-3.1,0.3-6.3-0.4-9.4
		C225.2,218,225.2,216.9,226.8,216z"/>
	<path class="st4" d="M228.6,213.9c5.3-2.2,10.4-2.7,15.4-3.8c14.3-3,28.8-5,43.2-7.4c9.5-1.6,19.1-2.8,28.7-3.3
		c11.9-0.7,23.4-2.6,34.9-5.4c9.7-2.4,19.5-3.9,29.4-4.9c9.6-0.9,19.2-1.3,28.7-3c2.9-0.5,5.2,0.6,7.3,2.5
		c8.8,8.2,19.1,14.5,28.2,22.3c6.7,5.8,12.7,12.1,18.7,18.7c3.1,3.5,7,6.1,10.9,8.6c2.9,1.8,5.9,3.6,9.5,5.8
		c-4.9,1.5-9.5,1.8-13.9,2.8c-15.6,3.6-31.7,3.4-47.3,7c-8.2,1.9-16.3,4.5-24.6,5.9c-15.1,2.6-30,5.8-44.8,9.3
		c-15.5,3.7-31.2,6.5-46.9,9.5c-8.1,1.6-16.3,2.9-24.5,4.6c-2.8,0.6-3.8-0.3-5.1-2.3c-5-7.8-9.6-15.9-15.5-23.1
		c-6.3-7.7-11.9-16-18.4-23.6C237.4,228,233.2,221.1,228.6,213.9z"/>
	<path class="st6" d="M461.6,110.2c-6.9,9.1-13.4,17.5-19.8,26c-3.8,5.1-7.5,10.2-11.4,15.1c-7.3,9.1-13.4,19-19.7,28.7
		c-2.9,4.4-6.4,5.2-11.4,4.5c-16.4-2.5-32.6-6-48.9-9c-10.9-2-21.9-4.1-32.7-6.4c-1.6-0.3-3.1-0.8-4.8-1.2c4.1-4.1,4.2-4.5,2.7-10.2
		c-0.8-2.9-1.8-5.9-3.6-8.2c-3.9-5.1-6.6-11.1-11.6-15.5c-2-1.7-2.3-4.4-2.1-6.8c0.4-5-0.2-10-1-14.9c-0.7-4.4,0.4-9-1.5-13.3
		c-0.2-0.5,0.2-1.3,0.4-1.9c1.4-2.9,2.8-5.6,4.7-8.2c1.2-1.8,2.5-2.2,4.7-1.6c7.7,2.1,15.4,3.8,23.3,5c8.6,1.2,17.2,2.1,25.8,1.9
		c7.7-0.2,15.3,0.5,22.8,1.4c10.7,1.3,21.5,2.1,32.2,3.6c7.2,1,14.3,2.7,21.5,4.2c9.1,1.9,18.1,3.9,27.2,5.9
		C459.3,109.5,460.1,109.8,461.6,110.2z"/>
	<path class="st6" d="M182,92.9c-4.6,1.2-9.5,1.6-13.7,4.2c-3.3,2-5.4,4.1-5.2,8.6c0.2,5.5,0.8,10.9,1.7,16.3
		c0.3,1.6-0.3,2.9-0.8,4.5c-2.1,6.6-7.8,10.1-12.1,14.7c-3.7,4-6.4,8.5-8,13.6c-1.7,5.3-0.6,8.9,4,12.1c0.8,0.6,1.8,0.9,2.5,2.2
		c-3.6,0.5-7.1,1.1-10.7,1.4c-9.4,0.8-18.9,1-28.3,2.3c-10.5,1.4-21.2,2-31.4,5c-3,0.9-4.9,0.1-6.3-2.2
		c-5.8-9.5-12.2-18.6-17.2-28.6c-3.4-6.6-6.6-13.4-9.9-20.1c-0.6-1.2-1.3-2.3-2.1-3.4c-4.5-6.1-8.8-12.3-11.9-19.3
		c17-1.4,33.8-3.8,50.9-4.7c12.9-0.7,25.7-3.4,38.6-4.3c8.2-0.5,16.3,0.5,24.4-0.4c9.7-1.1,19.6-1.1,29.2-2.9
		c1.1-0.2,2.3-0.1,3.5-0.2C180.2,91.7,181.6,90.5,182,92.9z"/>
	<path class="st7" d="M155.2,197.8c1.1-3.2,1-6.3,1-9.4c0-4.7,0-9.3-0.1-14c0-2,0.6-2.6,2.7-2.3c5.3,1,10.6,0.9,15.9,0.7
		c1.2,0,2.3-0.2,3.4,0.6c3.3,2.3,7,3.1,10.9,3.2c7.6,0.2,14.6,2.9,21.8,4.9c7.5,2.1,15.3,2.8,23.1,3.7c1.8,0.2,3.6-0.1,5.4-0.7
		c1-0.4,2-0.8,1.9-2c-0.3-3.8,2.2-3.3,4.6-3.2c15.5,0.5,30.4-2.3,44.6-8.5c2.9-1.3,5.7-2.7,8.6-4c2.7-1.2,4.4-0.1,4.8,2.8
		c0,0.2,0,0.3,0,0.5c-0.2,7.8,0.6,15.6,0.9,23.4c0.2,4.1,0,4.2-3.9,4.6c-11.9,1.1-23.8,3.1-35.5,5.1c-9.8,1.7-19.6,3.6-29.4,5
		c-1.1,0.2-2.2,0.8-3.3,1.2c-4.3,1.5-8.4,2.1-13.1,1.3c-5.8-1-11.8-1.4-17.8-2.1c-12.3-1.6-24-5.1-36-8
		C162.2,199.5,158.5,199.4,155.2,197.8z"/>
	<path class="st0" d="M165.7,107.5c3.7,0.5,6.8,2.1,10.1,3c6.9,1.9,13.9,1.4,20.8,2.3c3.9,0.5,7.9,0.7,11.9,1.3
		c8.7,1.3,17.6,0.9,26.4,1.2c13.7,0.4,27.2-1.8,40.8-2.9c6.3-0.5,12.3-2.7,18.4-5.7c1.3,5.7,1.7,11.3,1.9,16.8
		c0.1,1.9-1.6,2.4-2.9,3c-3.3,1.5-6.9,2.4-10.4,3.3c-14.3,3.6-28.9,4.4-43.5,4.9c-11.8,0.4-23.6,0.3-35.4-0.6
		c-10.7-0.8-20.9-3.6-31.2-6.4c-2.9-0.8-4.8-2.8-5.4-5.9C166.2,117.2,165.4,112.5,165.7,107.5z"/>
	<path class="st0" d="M235.8,112.9c-14.3,0.1-28.6-1.5-42.8-2.9c-5.9-0.6-11.9-0.3-17.8-2.1c-2.2-0.7-4.4-1.4-6.6-2.3
		c-2.4-1-2.6-2.6-0.9-4.7c1.3-1.6,3.2-2.5,5.1-3.1c7-2.1,14.2-3.6,21.5-4.5c7.3-0.9,14.6-1.3,21.9-1.8c2.3-0.2,4.7-0.5,7-0.1
		c6.8,1.2,13.6,0.6,20.4,0.5c5.7,0,11.3,0.2,16.9,1.3c6.4,1.2,12.8,1.9,19.3,2.6c4.4,0.5,8.3,2.2,12.2,4.2c1,0.5,2.3,1,2.3,2.4
		c0,1.5-1.3,2.1-2.5,2.7c-5,2.5-10.2,4.3-15.7,4.9C262.7,111.2,249.3,112.9,235.8,112.9z"/>
	<path class="st0" d="M231.6,182.7c-7.7-2-17.2-1.5-25.6-5.3c-6-2.7-12.3-2.4-18.5-3.5c-1.1-0.2-2.3-0.2-3.4-0.6
		c-2.6-0.8-4.2-2.4-4.2-5.4c-0.1-8.2,1.1-16.2,4-24c0.6-1.6,1-3,3.4-2.5c12.2,2.8,24.6,4.1,37,4.4c0.7,0,1.3,0.1,2,0.2
		c5.5,0.6,5.5,0.6,6.7,5.8c1.8,8,3.6,15.9,5.4,23.8c0.1,0.6,0.3,1.3,0.4,2c0.5,4.3,0,4.9-4.4,5C233.8,182.7,233.3,182.7,231.6,182.7
		z"/>
	<path class="st0" d="M298.9,163.8c-12,6.4-24.2,10.9-37.5,12.1c-4.3,0.4-8.6,1-12.9,1.4c-1.6,0.1-3.3,0.2-4.9-0.2
		c-1.8-0.4-2.9-1.2-3.2-3.2c-1.2-7.7-3.5-15.2-5.2-22.8c-0.9-4.1-0.8-4.3,3.1-4.7c13.6-1.3,27-3.2,40.4-6c2-0.4,3,0.3,4,1.9
		C287.4,149.7,292.6,156.8,298.9,163.8z"/>
	<path class="st8" d="M389.4,185.4c-4.3,1.2-7.5,1.7-10.8,1.7c-9,0-17.8,2.1-26.4,4.2c-13.7,3.4-27.6,5.3-41.8,5.9
		c-1.8,0.1-3.2,0.1-3.3-2.4c-0.3-8-0.7-15.9-1.1-23.9c0-0.5,0.2-0.9,0.4-1.8C333.6,174.9,361.1,179.2,389.4,185.4z"/>
	<path class="st8" d="M153.5,198.1c-25.2-6.7-50.7-9.1-75.9-17.4c6-2.1,11.2-2.9,16.3-3.5c15.2-1.6,30.3-3.6,45.6-4.3
		c3.8-0.2,7.6-0.6,11.4-1.3c2.5-0.5,3,0.4,2.9,2.5c-0.3,7,0.6,14-0.5,20.9C153.2,195.9,153.4,196.7,153.5,198.1z"/>
	<path class="st0" d="M182.3,140.5c-3.4,9.2-5,18.1-5,27.3c0,1.3-0.2,2.2-1.8,2.3c-8.5,0.6-16.9,0.8-24.5-4c-5.4-3.4-6.4-6-4.3-11.9
		c2.9-8.1,9.4-13.1,15-18.9c0.7-0.7,1.4-0.8,2.2-0.3C169.3,138.4,175.6,139.2,182.3,140.5z"/>
	<path class="st9" d="M165.5,128.1c8.7,2.6,17.3,5.1,26,6.8c6.7,1.3,13.5,1.9,20.3,2.1c18.8,0.5,37.6,0.3,56.3-2.1
		c7.4-1,14.8-2.3,21.9-4.7c1.3-0.4,2.5-0.8,3.8-1.1c1.4-0.3,2.2,0.4,2.6,1.7c0.4,1.3-0.6,1.7-1.4,2.2c-4.1,2.7-8.9,3.8-13.6,4.7
		c-8.8,1.6-17.7,2.9-26.5,4.5c-12.4,2.2-24.7,1.6-37.2,1.2c-14.6-0.5-28.5-4.5-42.7-6.6c-2.4-0.4-4.9-1-7.1-2.3
		C165.6,133,164.2,131.2,165.5,128.1z"/>
	<path class="st10" d="M284.2,139.7c4-1.6,8.1-1.9,11.3-4.4c0.8-0.6,1.5-0.3,2.3,0c1.4,0.6,2.7,1.5,3.5,2.8
		c3.7,6.1,8.9,11.2,11.4,18c0.3,0.8,0.6,1.6,0.7,2.4c0.3,2,1.7,4.1-0.9,5.8c-2.8,1.9-5.9,2.3-8.4,0.7c-2.5-1.7-4.5-4-6.4-6.3
		C292.9,152.8,288.3,146.8,284.2,139.7z"/>
	<path class="st6" d="M182,92.9c-0.6-1.5-2-0.6-3-1c0.1-0.1,0.2-0.3,0.3-0.4c8.6-0.7,17-4,25.9-1.8C197.4,90.9,189.7,91.9,182,92.9z
		"/>
</g>
</svg>
